<mxfile host="app.diagrams.net" agent="Mozilla/5.0 (Windows NT 10.0; Win64; x64; rv:135.0) Gecko/20100101 Firefox/135.0" version="26.1.0">
  <diagram name="Page-1" id="wqaEh2efp7w_bdg7v14W">
    <mxGraphModel dx="2284" dy="781" grid="1" gridSize="10" guides="1" tooltips="1" connect="1" arrows="1" fold="1" page="1" pageScale="1" pageWidth="850" pageHeight="1100" math="0" shadow="0">
      <root>
        <mxCell id="0" />
        <mxCell id="1" parent="0" />
        <mxCell id="0f1eRFlx8pcuxKhk-a7z-71" value="Entity-Relation Diagram" style="rounded=1;whiteSpace=wrap;html=1;verticalAlign=top;align=center;fontSize=21;fontFamily=Verdana;" vertex="1" parent="1">
          <mxGeometry x="-120" y="150" width="880" height="360" as="geometry" />
        </mxCell>
        <mxCell id="0f1eRFlx8pcuxKhk-a7z-4" value="TagMap" style="shape=table;startSize=30;container=1;collapsible=1;childLayout=tableLayout;fixedRows=1;rowLines=0;fontStyle=1;align=center;resizeLast=1;html=1;whiteSpace=wrap;fontFamily=Verdana;" vertex="1" parent="1">
          <mxGeometry x="-80" y="210" width="180" height="180" as="geometry" />
        </mxCell>
        <mxCell id="0f1eRFlx8pcuxKhk-a7z-8" value="" style="shape=tableRow;horizontal=0;startSize=0;swimlaneHead=0;swimlaneBody=0;fillColor=none;collapsible=0;dropTarget=0;points=[[0,0.5],[1,0.5]];portConstraint=eastwest;top=0;left=0;right=0;bottom=1;html=1;" vertex="1" parent="0f1eRFlx8pcuxKhk-a7z-4">
          <mxGeometry y="30" width="180" height="30" as="geometry" />
        </mxCell>
        <mxCell id="0f1eRFlx8pcuxKhk-a7z-9" value="PK" style="shape=partialRectangle;connectable=0;fillColor=none;top=0;left=0;bottom=0;right=0;fontStyle=1;overflow=hidden;html=1;whiteSpace=wrap;" vertex="1" parent="0f1eRFlx8pcuxKhk-a7z-8">
          <mxGeometry width="60" height="30" as="geometry">
            <mxRectangle width="60" height="30" as="alternateBounds" />
          </mxGeometry>
        </mxCell>
        <mxCell id="0f1eRFlx8pcuxKhk-a7z-10" value="id" style="shape=partialRectangle;connectable=0;fillColor=none;top=0;left=0;bottom=0;right=0;align=left;spacingLeft=6;fontStyle=5;overflow=hidden;html=1;whiteSpace=wrap;" vertex="1" parent="0f1eRFlx8pcuxKhk-a7z-8">
          <mxGeometry x="60" width="120" height="30" as="geometry">
            <mxRectangle width="120" height="30" as="alternateBounds" />
          </mxGeometry>
        </mxCell>
        <mxCell id="0f1eRFlx8pcuxKhk-a7z-11" value="" style="shape=tableRow;horizontal=0;startSize=0;swimlaneHead=0;swimlaneBody=0;fillColor=none;collapsible=0;dropTarget=0;points=[[0,0.5],[1,0.5]];portConstraint=eastwest;top=0;left=0;right=0;bottom=0;html=1;" vertex="1" parent="0f1eRFlx8pcuxKhk-a7z-4">
          <mxGeometry y="60" width="180" height="30" as="geometry" />
        </mxCell>
        <mxCell id="0f1eRFlx8pcuxKhk-a7z-12" value="" style="shape=partialRectangle;connectable=0;fillColor=none;top=0;left=0;bottom=0;right=0;editable=1;overflow=hidden;html=1;whiteSpace=wrap;" vertex="1" parent="0f1eRFlx8pcuxKhk-a7z-11">
          <mxGeometry width="60" height="30" as="geometry">
            <mxRectangle width="60" height="30" as="alternateBounds" />
          </mxGeometry>
        </mxCell>
        <mxCell id="0f1eRFlx8pcuxKhk-a7z-13" value="name" style="shape=partialRectangle;connectable=0;fillColor=none;top=0;left=0;bottom=0;right=0;align=left;spacingLeft=6;overflow=hidden;html=1;whiteSpace=wrap;" vertex="1" parent="0f1eRFlx8pcuxKhk-a7z-11">
          <mxGeometry x="60" width="120" height="30" as="geometry">
            <mxRectangle width="120" height="30" as="alternateBounds" />
          </mxGeometry>
        </mxCell>
        <mxCell id="0f1eRFlx8pcuxKhk-a7z-20" style="shape=tableRow;horizontal=0;startSize=0;swimlaneHead=0;swimlaneBody=0;fillColor=none;collapsible=0;dropTarget=0;points=[[0,0.5],[1,0.5]];portConstraint=eastwest;top=0;left=0;right=0;bottom=0;html=1;" vertex="1" parent="0f1eRFlx8pcuxKhk-a7z-4">
          <mxGeometry y="90" width="180" height="30" as="geometry" />
        </mxCell>
        <mxCell id="0f1eRFlx8pcuxKhk-a7z-21" style="shape=partialRectangle;connectable=0;fillColor=none;top=0;left=0;bottom=0;right=0;editable=1;overflow=hidden;html=1;whiteSpace=wrap;" vertex="1" parent="0f1eRFlx8pcuxKhk-a7z-20">
          <mxGeometry width="60" height="30" as="geometry">
            <mxRectangle width="60" height="30" as="alternateBounds" />
          </mxGeometry>
        </mxCell>
        <mxCell id="0f1eRFlx8pcuxKhk-a7z-22" value="unfolded" style="shape=partialRectangle;connectable=0;fillColor=none;top=0;left=0;bottom=0;right=0;align=left;spacingLeft=6;overflow=hidden;html=1;whiteSpace=wrap;" vertex="1" parent="0f1eRFlx8pcuxKhk-a7z-20">
          <mxGeometry x="60" width="120" height="30" as="geometry">
            <mxRectangle width="120" height="30" as="alternateBounds" />
          </mxGeometry>
        </mxCell>
        <mxCell id="0f1eRFlx8pcuxKhk-a7z-17" style="shape=tableRow;horizontal=0;startSize=0;swimlaneHead=0;swimlaneBody=0;fillColor=none;collapsible=0;dropTarget=0;points=[[0,0.5],[1,0.5]];portConstraint=eastwest;top=0;left=0;right=0;bottom=0;html=1;" vertex="1" parent="0f1eRFlx8pcuxKhk-a7z-4">
          <mxGeometry y="120" width="180" height="30" as="geometry" />
        </mxCell>
        <mxCell id="0f1eRFlx8pcuxKhk-a7z-18" style="shape=partialRectangle;connectable=0;fillColor=none;top=0;left=0;bottom=0;right=0;editable=1;overflow=hidden;html=1;whiteSpace=wrap;" vertex="1" parent="0f1eRFlx8pcuxKhk-a7z-17">
          <mxGeometry width="60" height="30" as="geometry">
            <mxRectangle width="60" height="30" as="alternateBounds" />
          </mxGeometry>
        </mxCell>
        <mxCell id="0f1eRFlx8pcuxKhk-a7z-19" value="childTagIds" style="shape=partialRectangle;connectable=0;fillColor=none;top=0;left=0;bottom=0;right=0;align=left;spacingLeft=6;overflow=hidden;html=1;whiteSpace=wrap;" vertex="1" parent="0f1eRFlx8pcuxKhk-a7z-17">
          <mxGeometry x="60" width="120" height="30" as="geometry">
            <mxRectangle width="120" height="30" as="alternateBounds" />
          </mxGeometry>
        </mxCell>
        <mxCell id="0f1eRFlx8pcuxKhk-a7z-23" style="shape=tableRow;horizontal=0;startSize=0;swimlaneHead=0;swimlaneBody=0;fillColor=none;collapsible=0;dropTarget=0;points=[[0,0.5],[1,0.5]];portConstraint=eastwest;top=0;left=0;right=0;bottom=0;html=1;" vertex="1" parent="0f1eRFlx8pcuxKhk-a7z-4">
          <mxGeometry y="150" width="180" height="30" as="geometry" />
        </mxCell>
        <mxCell id="0f1eRFlx8pcuxKhk-a7z-24" style="shape=partialRectangle;connectable=0;fillColor=none;top=0;left=0;bottom=0;right=0;editable=1;overflow=hidden;html=1;whiteSpace=wrap;" vertex="1" parent="0f1eRFlx8pcuxKhk-a7z-23">
          <mxGeometry width="60" height="30" as="geometry">
            <mxRectangle width="60" height="30" as="alternateBounds" />
          </mxGeometry>
        </mxCell>
        <mxCell id="0f1eRFlx8pcuxKhk-a7z-25" value="parentTagIds" style="shape=partialRectangle;connectable=0;fillColor=none;top=0;left=0;bottom=0;right=0;align=left;spacingLeft=6;overflow=hidden;html=1;whiteSpace=wrap;" vertex="1" parent="0f1eRFlx8pcuxKhk-a7z-23">
          <mxGeometry x="60" width="120" height="30" as="geometry">
            <mxRectangle width="120" height="30" as="alternateBounds" />
          </mxGeometry>
        </mxCell>
        <mxCell id="0f1eRFlx8pcuxKhk-a7z-44" style="edgeStyle=orthogonalEdgeStyle;rounded=0;orthogonalLoop=1;jettySize=auto;html=1;exitX=1;exitY=0.5;exitDx=0;exitDy=0;entryX=1.001;entryY=0.272;entryDx=0;entryDy=0;entryPerimeter=0;" edge="1" parent="0f1eRFlx8pcuxKhk-a7z-4" source="0f1eRFlx8pcuxKhk-a7z-23" target="0f1eRFlx8pcuxKhk-a7z-8">
          <mxGeometry relative="1" as="geometry">
            <Array as="points">
              <mxPoint x="220" y="165" />
              <mxPoint x="220" y="38" />
            </Array>
          </mxGeometry>
        </mxCell>
        <mxCell id="0f1eRFlx8pcuxKhk-a7z-26" value="TaskMap" style="shape=table;startSize=30;container=1;collapsible=1;childLayout=tableLayout;fixedRows=1;rowLines=0;fontStyle=1;align=center;resizeLast=1;html=1;whiteSpace=wrap;fontFamily=Verdana;" vertex="1" parent="1">
          <mxGeometry x="470" y="210" width="180" height="270" as="geometry" />
        </mxCell>
        <mxCell id="0f1eRFlx8pcuxKhk-a7z-27" value="" style="shape=tableRow;horizontal=0;startSize=0;swimlaneHead=0;swimlaneBody=0;fillColor=none;collapsible=0;dropTarget=0;points=[[0,0.5],[1,0.5]];portConstraint=eastwest;top=0;left=0;right=0;bottom=1;html=1;" vertex="1" parent="0f1eRFlx8pcuxKhk-a7z-26">
          <mxGeometry y="30" width="180" height="30" as="geometry" />
        </mxCell>
        <mxCell id="0f1eRFlx8pcuxKhk-a7z-28" value="PK" style="shape=partialRectangle;connectable=0;fillColor=none;top=0;left=0;bottom=0;right=0;fontStyle=1;overflow=hidden;html=1;whiteSpace=wrap;" vertex="1" parent="0f1eRFlx8pcuxKhk-a7z-27">
          <mxGeometry width="60" height="30" as="geometry">
            <mxRectangle width="60" height="30" as="alternateBounds" />
          </mxGeometry>
        </mxCell>
        <mxCell id="0f1eRFlx8pcuxKhk-a7z-29" value="id" style="shape=partialRectangle;connectable=0;fillColor=none;top=0;left=0;bottom=0;right=0;align=left;spacingLeft=6;fontStyle=5;overflow=hidden;html=1;whiteSpace=wrap;" vertex="1" parent="0f1eRFlx8pcuxKhk-a7z-27">
          <mxGeometry x="60" width="120" height="30" as="geometry">
            <mxRectangle width="120" height="30" as="alternateBounds" />
          </mxGeometry>
        </mxCell>
        <mxCell id="0f1eRFlx8pcuxKhk-a7z-30" value="" style="shape=tableRow;horizontal=0;startSize=0;swimlaneHead=0;swimlaneBody=0;fillColor=none;collapsible=0;dropTarget=0;points=[[0,0.5],[1,0.5]];portConstraint=eastwest;top=0;left=0;right=0;bottom=0;html=1;" vertex="1" parent="0f1eRFlx8pcuxKhk-a7z-26">
          <mxGeometry y="60" width="180" height="30" as="geometry" />
        </mxCell>
        <mxCell id="0f1eRFlx8pcuxKhk-a7z-31" value="" style="shape=partialRectangle;connectable=0;fillColor=none;top=0;left=0;bottom=0;right=0;editable=1;overflow=hidden;html=1;whiteSpace=wrap;" vertex="1" parent="0f1eRFlx8pcuxKhk-a7z-30">
          <mxGeometry width="60" height="30" as="geometry">
            <mxRectangle width="60" height="30" as="alternateBounds" />
          </mxGeometry>
        </mxCell>
        <mxCell id="0f1eRFlx8pcuxKhk-a7z-32" value="name" style="shape=partialRectangle;connectable=0;fillColor=none;top=0;left=0;bottom=0;right=0;align=left;spacingLeft=6;overflow=hidden;html=1;whiteSpace=wrap;" vertex="1" parent="0f1eRFlx8pcuxKhk-a7z-30">
          <mxGeometry x="60" width="120" height="30" as="geometry">
            <mxRectangle width="120" height="30" as="alternateBounds" />
          </mxGeometry>
        </mxCell>
        <mxCell id="0f1eRFlx8pcuxKhk-a7z-33" style="shape=tableRow;horizontal=0;startSize=0;swimlaneHead=0;swimlaneBody=0;fillColor=none;collapsible=0;dropTarget=0;points=[[0,0.5],[1,0.5]];portConstraint=eastwest;top=0;left=0;right=0;bottom=0;html=1;" vertex="1" parent="0f1eRFlx8pcuxKhk-a7z-26">
          <mxGeometry y="90" width="180" height="30" as="geometry" />
        </mxCell>
        <mxCell id="0f1eRFlx8pcuxKhk-a7z-34" style="shape=partialRectangle;connectable=0;fillColor=none;top=0;left=0;bottom=0;right=0;editable=1;overflow=hidden;html=1;whiteSpace=wrap;" vertex="1" parent="0f1eRFlx8pcuxKhk-a7z-33">
          <mxGeometry width="60" height="30" as="geometry">
            <mxRectangle width="60" height="30" as="alternateBounds" />
          </mxGeometry>
        </mxCell>
        <mxCell id="0f1eRFlx8pcuxKhk-a7z-35" value="finishStatus" style="shape=partialRectangle;connectable=0;fillColor=none;top=0;left=0;bottom=0;right=0;align=left;spacingLeft=6;overflow=hidden;html=1;whiteSpace=wrap;" vertex="1" parent="0f1eRFlx8pcuxKhk-a7z-33">
          <mxGeometry x="60" width="120" height="30" as="geometry">
            <mxRectangle width="120" height="30" as="alternateBounds" />
          </mxGeometry>
        </mxCell>
        <mxCell id="0f1eRFlx8pcuxKhk-a7z-36" style="shape=tableRow;horizontal=0;startSize=0;swimlaneHead=0;swimlaneBody=0;fillColor=none;collapsible=0;dropTarget=0;points=[[0,0.5],[1,0.5]];portConstraint=eastwest;top=0;left=0;right=0;bottom=0;html=1;" vertex="1" parent="0f1eRFlx8pcuxKhk-a7z-26">
          <mxGeometry y="120" width="180" height="30" as="geometry" />
        </mxCell>
        <mxCell id="0f1eRFlx8pcuxKhk-a7z-37" style="shape=partialRectangle;connectable=0;fillColor=none;top=0;left=0;bottom=0;right=0;editable=1;overflow=hidden;html=1;whiteSpace=wrap;" vertex="1" parent="0f1eRFlx8pcuxKhk-a7z-36">
          <mxGeometry width="60" height="30" as="geometry">
            <mxRectangle width="60" height="30" as="alternateBounds" />
          </mxGeometry>
        </mxCell>
        <mxCell id="0f1eRFlx8pcuxKhk-a7z-38" value="scheduled" style="shape=partialRectangle;connectable=0;fillColor=none;top=0;left=0;bottom=0;right=0;align=left;spacingLeft=6;overflow=hidden;html=1;whiteSpace=wrap;" vertex="1" parent="0f1eRFlx8pcuxKhk-a7z-36">
          <mxGeometry x="60" width="120" height="30" as="geometry">
            <mxRectangle width="120" height="30" as="alternateBounds" />
          </mxGeometry>
        </mxCell>
        <mxCell id="0f1eRFlx8pcuxKhk-a7z-39" style="shape=tableRow;horizontal=0;startSize=0;swimlaneHead=0;swimlaneBody=0;fillColor=none;collapsible=0;dropTarget=0;points=[[0,0.5],[1,0.5]];portConstraint=eastwest;top=0;left=0;right=0;bottom=0;html=1;" vertex="1" parent="0f1eRFlx8pcuxKhk-a7z-26">
          <mxGeometry y="150" width="180" height="30" as="geometry" />
        </mxCell>
        <mxCell id="0f1eRFlx8pcuxKhk-a7z-40" style="shape=partialRectangle;connectable=0;fillColor=none;top=0;left=0;bottom=0;right=0;editable=1;overflow=hidden;html=1;whiteSpace=wrap;" vertex="1" parent="0f1eRFlx8pcuxKhk-a7z-39">
          <mxGeometry width="60" height="30" as="geometry">
            <mxRectangle width="60" height="30" as="alternateBounds" />
          </mxGeometry>
        </mxCell>
        <mxCell id="0f1eRFlx8pcuxKhk-a7z-41" value="repeated" style="shape=partialRectangle;connectable=0;fillColor=none;top=0;left=0;bottom=0;right=0;align=left;spacingLeft=6;overflow=hidden;html=1;whiteSpace=wrap;" vertex="1" parent="0f1eRFlx8pcuxKhk-a7z-39">
          <mxGeometry x="60" width="120" height="30" as="geometry">
            <mxRectangle width="120" height="30" as="alternateBounds" />
          </mxGeometry>
        </mxCell>
        <mxCell id="0f1eRFlx8pcuxKhk-a7z-51" style="shape=tableRow;horizontal=0;startSize=0;swimlaneHead=0;swimlaneBody=0;fillColor=none;collapsible=0;dropTarget=0;points=[[0,0.5],[1,0.5]];portConstraint=eastwest;top=0;left=0;right=0;bottom=0;html=1;" vertex="1" parent="0f1eRFlx8pcuxKhk-a7z-26">
          <mxGeometry y="180" width="180" height="30" as="geometry" />
        </mxCell>
        <mxCell id="0f1eRFlx8pcuxKhk-a7z-52" style="shape=partialRectangle;connectable=0;fillColor=none;top=0;left=0;bottom=0;right=0;editable=1;overflow=hidden;html=1;whiteSpace=wrap;" vertex="1" parent="0f1eRFlx8pcuxKhk-a7z-51">
          <mxGeometry width="60" height="30" as="geometry">
            <mxRectangle width="60" height="30" as="alternateBounds" />
          </mxGeometry>
        </mxCell>
        <mxCell id="0f1eRFlx8pcuxKhk-a7z-53" value="unfolded" style="shape=partialRectangle;connectable=0;fillColor=none;top=0;left=0;bottom=0;right=0;align=left;spacingLeft=6;overflow=hidden;html=1;whiteSpace=wrap;" vertex="1" parent="0f1eRFlx8pcuxKhk-a7z-51">
          <mxGeometry x="60" width="120" height="30" as="geometry">
            <mxRectangle width="120" height="30" as="alternateBounds" />
          </mxGeometry>
        </mxCell>
        <mxCell id="0f1eRFlx8pcuxKhk-a7z-48" style="shape=tableRow;horizontal=0;startSize=0;swimlaneHead=0;swimlaneBody=0;fillColor=none;collapsible=0;dropTarget=0;points=[[0,0.5],[1,0.5]];portConstraint=eastwest;top=0;left=0;right=0;bottom=0;html=1;" vertex="1" parent="0f1eRFlx8pcuxKhk-a7z-26">
          <mxGeometry y="210" width="180" height="30" as="geometry" />
        </mxCell>
        <mxCell id="0f1eRFlx8pcuxKhk-a7z-49" style="shape=partialRectangle;connectable=0;fillColor=none;top=0;left=0;bottom=0;right=0;editable=1;overflow=hidden;html=1;whiteSpace=wrap;" vertex="1" parent="0f1eRFlx8pcuxKhk-a7z-48">
          <mxGeometry width="60" height="30" as="geometry">
            <mxRectangle width="60" height="30" as="alternateBounds" />
          </mxGeometry>
        </mxCell>
        <mxCell id="0f1eRFlx8pcuxKhk-a7z-50" value="childTaskIds" style="shape=partialRectangle;connectable=0;fillColor=none;top=0;left=0;bottom=0;right=0;align=left;spacingLeft=6;overflow=hidden;html=1;whiteSpace=wrap;" vertex="1" parent="0f1eRFlx8pcuxKhk-a7z-48">
          <mxGeometry x="60" width="120" height="30" as="geometry">
            <mxRectangle width="120" height="30" as="alternateBounds" />
          </mxGeometry>
        </mxCell>
        <mxCell id="0f1eRFlx8pcuxKhk-a7z-45" style="shape=tableRow;horizontal=0;startSize=0;swimlaneHead=0;swimlaneBody=0;fillColor=none;collapsible=0;dropTarget=0;points=[[0,0.5],[1,0.5]];portConstraint=eastwest;top=0;left=0;right=0;bottom=0;html=1;" vertex="1" parent="0f1eRFlx8pcuxKhk-a7z-26">
          <mxGeometry y="240" width="180" height="30" as="geometry" />
        </mxCell>
        <mxCell id="0f1eRFlx8pcuxKhk-a7z-46" style="shape=partialRectangle;connectable=0;fillColor=none;top=0;left=0;bottom=0;right=0;editable=1;overflow=hidden;html=1;whiteSpace=wrap;" vertex="1" parent="0f1eRFlx8pcuxKhk-a7z-45">
          <mxGeometry width="60" height="30" as="geometry">
            <mxRectangle width="60" height="30" as="alternateBounds" />
          </mxGeometry>
        </mxCell>
        <mxCell id="0f1eRFlx8pcuxKhk-a7z-47" value="parentTaskIds" style="shape=partialRectangle;connectable=0;fillColor=none;top=0;left=0;bottom=0;right=0;align=left;spacingLeft=6;overflow=hidden;html=1;whiteSpace=wrap;" vertex="1" parent="0f1eRFlx8pcuxKhk-a7z-45">
          <mxGeometry x="60" width="120" height="30" as="geometry">
            <mxRectangle width="120" height="30" as="alternateBounds" />
          </mxGeometry>
        </mxCell>
        <mxCell id="0f1eRFlx8pcuxKhk-a7z-55" style="edgeStyle=orthogonalEdgeStyle;rounded=0;orthogonalLoop=1;jettySize=auto;html=1;exitX=1;exitY=0.5;exitDx=0;exitDy=0;entryX=0.993;entryY=0.187;entryDx=0;entryDy=0;entryPerimeter=0;" edge="1" parent="0f1eRFlx8pcuxKhk-a7z-26" source="0f1eRFlx8pcuxKhk-a7z-45" target="0f1eRFlx8pcuxKhk-a7z-27">
          <mxGeometry relative="1" as="geometry">
            <Array as="points">
              <mxPoint x="220" y="255" />
              <mxPoint x="220" y="36" />
            </Array>
          </mxGeometry>
        </mxCell>
        <mxCell id="0f1eRFlx8pcuxKhk-a7z-42" style="edgeStyle=orthogonalEdgeStyle;rounded=0;orthogonalLoop=1;jettySize=auto;html=1;exitX=1;exitY=0.5;exitDx=0;exitDy=0;entryX=1;entryY=0.5;entryDx=0;entryDy=0;" edge="1" parent="1" source="0f1eRFlx8pcuxKhk-a7z-17" target="0f1eRFlx8pcuxKhk-a7z-8">
          <mxGeometry relative="1" as="geometry" />
        </mxCell>
        <mxCell id="0f1eRFlx8pcuxKhk-a7z-54" style="edgeStyle=orthogonalEdgeStyle;rounded=0;orthogonalLoop=1;jettySize=auto;html=1;exitX=1;exitY=0.5;exitDx=0;exitDy=0;entryX=1;entryY=0.5;entryDx=0;entryDy=0;" edge="1" parent="1" source="0f1eRFlx8pcuxKhk-a7z-48" target="0f1eRFlx8pcuxKhk-a7z-27">
          <mxGeometry relative="1" as="geometry" />
        </mxCell>
        <mxCell id="0f1eRFlx8pcuxKhk-a7z-56" value="TagTasks" style="shape=table;startSize=30;container=1;collapsible=1;childLayout=tableLayout;fixedRows=1;rowLines=0;fontStyle=1;align=center;resizeLast=1;html=1;whiteSpace=wrap;fontFamily=Verdana;" vertex="1" parent="1">
          <mxGeometry x="220" y="210" width="180" height="90" as="geometry" />
        </mxCell>
        <mxCell id="0f1eRFlx8pcuxKhk-a7z-60" value="" style="shape=tableRow;horizontal=0;startSize=0;swimlaneHead=0;swimlaneBody=0;fillColor=none;collapsible=0;dropTarget=0;points=[[0,0.5],[1,0.5]];portConstraint=eastwest;top=0;left=0;right=0;bottom=1;html=1;" vertex="1" parent="0f1eRFlx8pcuxKhk-a7z-56">
          <mxGeometry y="30" width="180" height="30" as="geometry" />
        </mxCell>
        <mxCell id="0f1eRFlx8pcuxKhk-a7z-61" value="PK, FK" style="shape=partialRectangle;connectable=0;fillColor=none;top=0;left=0;bottom=0;right=0;fontStyle=1;overflow=hidden;html=1;whiteSpace=wrap;" vertex="1" parent="0f1eRFlx8pcuxKhk-a7z-60">
          <mxGeometry width="60" height="30" as="geometry">
            <mxRectangle width="60" height="30" as="alternateBounds" />
          </mxGeometry>
        </mxCell>
        <mxCell id="0f1eRFlx8pcuxKhk-a7z-62" value="tagId" style="shape=partialRectangle;connectable=0;fillColor=none;top=0;left=0;bottom=0;right=0;align=left;spacingLeft=6;fontStyle=5;overflow=hidden;html=1;whiteSpace=wrap;" vertex="1" parent="0f1eRFlx8pcuxKhk-a7z-60">
          <mxGeometry x="60" width="120" height="30" as="geometry">
            <mxRectangle width="120" height="30" as="alternateBounds" />
          </mxGeometry>
        </mxCell>
        <mxCell id="0f1eRFlx8pcuxKhk-a7z-63" value="" style="shape=tableRow;horizontal=0;startSize=0;swimlaneHead=0;swimlaneBody=0;fillColor=none;collapsible=0;dropTarget=0;points=[[0,0.5],[1,0.5]];portConstraint=eastwest;top=0;left=0;right=0;bottom=0;html=1;" vertex="1" parent="0f1eRFlx8pcuxKhk-a7z-56">
          <mxGeometry y="60" width="180" height="30" as="geometry" />
        </mxCell>
        <mxCell id="0f1eRFlx8pcuxKhk-a7z-64" value="&lt;b&gt;FK&lt;/b&gt;" style="shape=partialRectangle;connectable=0;fillColor=none;top=0;left=0;bottom=0;right=0;editable=1;overflow=hidden;html=1;whiteSpace=wrap;" vertex="1" parent="0f1eRFlx8pcuxKhk-a7z-63">
          <mxGeometry width="60" height="30" as="geometry">
            <mxRectangle width="60" height="30" as="alternateBounds" />
          </mxGeometry>
        </mxCell>
        <mxCell id="0f1eRFlx8pcuxKhk-a7z-65" value="taskIds" style="shape=partialRectangle;connectable=0;fillColor=none;top=0;left=0;bottom=0;right=0;align=left;spacingLeft=6;overflow=hidden;html=1;whiteSpace=wrap;" vertex="1" parent="0f1eRFlx8pcuxKhk-a7z-63">
          <mxGeometry x="60" width="120" height="30" as="geometry">
            <mxRectangle width="120" height="30" as="alternateBounds" />
          </mxGeometry>
        </mxCell>
        <mxCell id="0f1eRFlx8pcuxKhk-a7z-69" style="edgeStyle=orthogonalEdgeStyle;rounded=0;orthogonalLoop=1;jettySize=auto;html=1;exitX=1;exitY=0.5;exitDx=0;exitDy=0;entryX=0;entryY=0.5;entryDx=0;entryDy=0;" edge="1" parent="1" source="0f1eRFlx8pcuxKhk-a7z-8" target="0f1eRFlx8pcuxKhk-a7z-60">
          <mxGeometry relative="1" as="geometry" />
        </mxCell>
        <mxCell id="0f1eRFlx8pcuxKhk-a7z-70" style="edgeStyle=orthogonalEdgeStyle;rounded=0;orthogonalLoop=1;jettySize=auto;html=1;exitX=1;exitY=0.5;exitDx=0;exitDy=0;entryX=0;entryY=0.5;entryDx=0;entryDy=0;" edge="1" parent="1" source="0f1eRFlx8pcuxKhk-a7z-63" target="0f1eRFlx8pcuxKhk-a7z-27">
          <mxGeometry relative="1" as="geometry" />
        </mxCell>
        <mxCell id="0f1eRFlx8pcuxKhk-a7z-75" style="edgeStyle=orthogonalEdgeStyle;rounded=0;orthogonalLoop=1;jettySize=auto;html=1;exitX=0.5;exitY=1;exitDx=0;exitDy=0;entryX=0.5;entryY=0;entryDx=0;entryDy=0;" edge="1" parent="1" source="0f1eRFlx8pcuxKhk-a7z-72" target="0f1eRFlx8pcuxKhk-a7z-74">
          <mxGeometry relative="1" as="geometry" />
        </mxCell>
        <mxCell id="0f1eRFlx8pcuxKhk-a7z-72" value="TaskPlanner" style="rounded=1;whiteSpace=wrap;html=1;" vertex="1" parent="1">
          <mxGeometry x="-80" y="630" width="170" height="80" as="geometry" />
        </mxCell>
        <mxCell id="0f1eRFlx8pcuxKhk-a7z-76" style="edgeStyle=orthogonalEdgeStyle;rounded=0;orthogonalLoop=1;jettySize=auto;html=1;exitX=0.75;exitY=0.1;exitDx=0;exitDy=0;exitPerimeter=0;entryX=0;entryY=0.5;entryDx=0;entryDy=0;" edge="1" parent="1" source="0f1eRFlx8pcuxKhk-a7z-73" target="0f1eRFlx8pcuxKhk-a7z-72">
          <mxGeometry relative="1" as="geometry" />
        </mxCell>
        <mxCell id="0f1eRFlx8pcuxKhk-a7z-73" value="User" style="shape=umlActor;verticalLabelPosition=bottom;verticalAlign=top;html=1;outlineConnect=0;" vertex="1" parent="1">
          <mxGeometry x="-300" y="660" width="30" height="60" as="geometry" />
        </mxCell>
        <mxCell id="0f1eRFlx8pcuxKhk-a7z-74" value="Local FS" style="rounded=0;whiteSpace=wrap;html=1;" vertex="1" parent="1">
          <mxGeometry x="-55" y="780" width="120" height="60" as="geometry" />
        </mxCell>
        <mxCell id="0f1eRFlx8pcuxKhk-a7z-77" value="&lt;blockquote&gt;TaskPlanner&lt;/blockquote&gt;" style="rounded=1;whiteSpace=wrap;html=1;verticalAlign=top;align=left;" vertex="1" parent="1">
          <mxGeometry x="490" y="630" width="520" height="390" as="geometry" />
        </mxCell>
        <mxCell id="0f1eRFlx8pcuxKhk-a7z-106" style="edgeStyle=orthogonalEdgeStyle;rounded=0;orthogonalLoop=1;jettySize=auto;html=1;exitX=0.5;exitY=1;exitDx=0;exitDy=0;entryX=0.5;entryY=0;entryDx=0;entryDy=0;" edge="1" parent="1" source="0f1eRFlx8pcuxKhk-a7z-78" target="0f1eRFlx8pcuxKhk-a7z-104">
          <mxGeometry relative="1" as="geometry" />
        </mxCell>
        <mxCell id="0f1eRFlx8pcuxKhk-a7z-78" value="Import/Export" style="rounded=0;whiteSpace=wrap;html=1;" vertex="1" parent="1">
          <mxGeometry x="590" y="690" width="120" height="60" as="geometry" />
        </mxCell>
        <mxCell id="0f1eRFlx8pcuxKhk-a7z-84" style="edgeStyle=orthogonalEdgeStyle;rounded=0;orthogonalLoop=1;jettySize=auto;html=1;exitX=0.5;exitY=1;exitDx=0;exitDy=0;entryX=0.5;entryY=0;entryDx=0;entryDy=0;" edge="1" parent="1" source="0f1eRFlx8pcuxKhk-a7z-79" target="0f1eRFlx8pcuxKhk-a7z-80">
          <mxGeometry relative="1" as="geometry" />
        </mxCell>
        <mxCell id="0f1eRFlx8pcuxKhk-a7z-79" value="CategorizeTaskList" style="rounded=0;whiteSpace=wrap;html=1;" vertex="1" parent="1">
          <mxGeometry x="860" y="770" width="120" height="60" as="geometry" />
        </mxCell>
        <mxCell id="0f1eRFlx8pcuxKhk-a7z-85" style="edgeStyle=orthogonalEdgeStyle;rounded=0;orthogonalLoop=1;jettySize=auto;html=1;exitX=0.5;exitY=1;exitDx=0;exitDy=0;entryX=0.5;entryY=0;entryDx=0;entryDy=0;" edge="1" parent="1" source="0f1eRFlx8pcuxKhk-a7z-80" target="0f1eRFlx8pcuxKhk-a7z-81">
          <mxGeometry relative="1" as="geometry" />
        </mxCell>
        <mxCell id="0f1eRFlx8pcuxKhk-a7z-80" value="PrioritizeTaskList" style="rounded=0;whiteSpace=wrap;html=1;" vertex="1" parent="1">
          <mxGeometry x="860" y="850" width="120" height="60" as="geometry" />
        </mxCell>
        <mxCell id="0f1eRFlx8pcuxKhk-a7z-81" value="ScheduleTaskList" style="rounded=0;whiteSpace=wrap;html=1;" vertex="1" parent="1">
          <mxGeometry x="860" y="930" width="120" height="60" as="geometry" />
        </mxCell>
        <mxCell id="0f1eRFlx8pcuxKhk-a7z-83" style="edgeStyle=orthogonalEdgeStyle;rounded=0;orthogonalLoop=1;jettySize=auto;html=1;exitX=0.5;exitY=1;exitDx=0;exitDy=0;entryX=0.5;entryY=0;entryDx=0;entryDy=0;" edge="1" parent="1" source="0f1eRFlx8pcuxKhk-a7z-82" target="0f1eRFlx8pcuxKhk-a7z-79">
          <mxGeometry relative="1" as="geometry" />
        </mxCell>
        <mxCell id="0f1eRFlx8pcuxKhk-a7z-82" value="AddTaskList" style="rounded=0;whiteSpace=wrap;html=1;" vertex="1" parent="1">
          <mxGeometry x="860" y="690" width="120" height="60" as="geometry" />
        </mxCell>
        <mxCell id="0f1eRFlx8pcuxKhk-a7z-89" style="edgeStyle=orthogonalEdgeStyle;rounded=0;orthogonalLoop=1;jettySize=auto;html=1;exitX=1;exitY=0.5;exitDx=0;exitDy=0;entryX=0;entryY=0.5;entryDx=0;entryDy=0;" edge="1" parent="1" source="0f1eRFlx8pcuxKhk-a7z-88" target="0f1eRFlx8pcuxKhk-a7z-78">
          <mxGeometry relative="1" as="geometry" />
        </mxCell>
        <mxCell id="0f1eRFlx8pcuxKhk-a7z-88" value="Local FS" style="rounded=0;whiteSpace=wrap;html=1;" vertex="1" parent="1">
          <mxGeometry x="270" y="690" width="120" height="60" as="geometry" />
        </mxCell>
        <mxCell id="0f1eRFlx8pcuxKhk-a7z-92" value="&lt;blockquote&gt;Import/Export&lt;/blockquote&gt;" style="rounded=1;whiteSpace=wrap;html=1;verticalAlign=top;align=left;" vertex="1" parent="1">
          <mxGeometry x="1450" y="650" width="360" height="310" as="geometry" />
        </mxCell>
        <mxCell id="0f1eRFlx8pcuxKhk-a7z-118" style="edgeStyle=orthogonalEdgeStyle;rounded=0;orthogonalLoop=1;jettySize=auto;html=1;exitX=0.5;exitY=1;exitDx=0;exitDy=0;entryX=0.5;entryY=0;entryDx=0;entryDy=0;" edge="1" parent="1" source="0f1eRFlx8pcuxKhk-a7z-94" target="0f1eRFlx8pcuxKhk-a7z-98">
          <mxGeometry relative="1" as="geometry" />
        </mxCell>
        <mxCell id="0f1eRFlx8pcuxKhk-a7z-94" value="Input Validator" style="rounded=1;whiteSpace=wrap;html=1;" vertex="1" parent="1">
          <mxGeometry x="1645" y="710" width="120" height="60" as="geometry" />
        </mxCell>
        <mxCell id="0f1eRFlx8pcuxKhk-a7z-103" style="edgeStyle=orthogonalEdgeStyle;rounded=0;orthogonalLoop=1;jettySize=auto;html=1;exitX=0;exitY=0.5;exitDx=0;exitDy=0;entryX=1;entryY=0.5;entryDx=0;entryDy=0;" edge="1" parent="1" source="0f1eRFlx8pcuxKhk-a7z-97" target="0f1eRFlx8pcuxKhk-a7z-102">
          <mxGeometry relative="1" as="geometry" />
        </mxCell>
        <mxCell id="0f1eRFlx8pcuxKhk-a7z-97" value="Export formatter" style="rounded=1;whiteSpace=wrap;html=1;" vertex="1" parent="1">
          <mxGeometry x="1645" y="880" width="120" height="60" as="geometry" />
        </mxCell>
        <mxCell id="0f1eRFlx8pcuxKhk-a7z-112" style="edgeStyle=orthogonalEdgeStyle;rounded=0;orthogonalLoop=1;jettySize=auto;html=1;exitX=1;exitY=0.5;exitDx=0;exitDy=0;entryX=0;entryY=0.5;entryDx=0;entryDy=0;startArrow=classic;startFill=1;" edge="1" parent="1" source="0f1eRFlx8pcuxKhk-a7z-98" target="0f1eRFlx8pcuxKhk-a7z-111">
          <mxGeometry relative="1" as="geometry" />
        </mxCell>
        <mxCell id="0f1eRFlx8pcuxKhk-a7z-119" style="edgeStyle=orthogonalEdgeStyle;rounded=0;orthogonalLoop=1;jettySize=auto;html=1;exitX=0.5;exitY=1;exitDx=0;exitDy=0;entryX=0.5;entryY=0;entryDx=0;entryDy=0;" edge="1" parent="1" source="0f1eRFlx8pcuxKhk-a7z-98" target="0f1eRFlx8pcuxKhk-a7z-97">
          <mxGeometry relative="1" as="geometry" />
        </mxCell>
        <mxCell id="0f1eRFlx8pcuxKhk-a7z-124" style="edgeStyle=orthogonalEdgeStyle;rounded=0;orthogonalLoop=1;jettySize=auto;html=1;exitX=0;exitY=0.5;exitDx=0;exitDy=0;entryX=1;entryY=0.5;entryDx=0;entryDy=0;" edge="1" parent="1" source="0f1eRFlx8pcuxKhk-a7z-98" target="0f1eRFlx8pcuxKhk-a7z-123">
          <mxGeometry relative="1" as="geometry" />
        </mxCell>
        <mxCell id="0f1eRFlx8pcuxKhk-a7z-98" value="Version converter" style="rounded=1;whiteSpace=wrap;html=1;" vertex="1" parent="1">
          <mxGeometry x="1640" y="790" width="120" height="60" as="geometry" />
        </mxCell>
        <mxCell id="0f1eRFlx8pcuxKhk-a7z-120" style="edgeStyle=orthogonalEdgeStyle;rounded=0;orthogonalLoop=1;jettySize=auto;html=1;exitX=1;exitY=0.5;exitDx=0;exitDy=0;entryX=0;entryY=0.5;entryDx=0;entryDy=0;" edge="1" parent="1" source="0f1eRFlx8pcuxKhk-a7z-99" target="0f1eRFlx8pcuxKhk-a7z-114">
          <mxGeometry relative="1" as="geometry" />
        </mxCell>
        <mxCell id="0f1eRFlx8pcuxKhk-a7z-99" value="File type: taskplanner v0" style="rounded=0;whiteSpace=wrap;html=1;" vertex="1" parent="1">
          <mxGeometry x="1170" y="640" width="150" height="60" as="geometry" />
        </mxCell>
        <mxCell id="0f1eRFlx8pcuxKhk-a7z-121" style="edgeStyle=orthogonalEdgeStyle;rounded=0;orthogonalLoop=1;jettySize=auto;html=1;exitX=1;exitY=0.5;exitDx=0;exitDy=0;entryX=0;entryY=0.5;entryDx=0;entryDy=0;" edge="1" parent="1" source="0f1eRFlx8pcuxKhk-a7z-100" target="0f1eRFlx8pcuxKhk-a7z-114">
          <mxGeometry relative="1" as="geometry" />
        </mxCell>
        <mxCell id="0f1eRFlx8pcuxKhk-a7z-100" value="File type: taskplanner v1" style="rounded=0;whiteSpace=wrap;html=1;" vertex="1" parent="1">
          <mxGeometry x="1170" y="710" width="150" height="60" as="geometry" />
        </mxCell>
        <mxCell id="0f1eRFlx8pcuxKhk-a7z-122" style="edgeStyle=orthogonalEdgeStyle;rounded=0;orthogonalLoop=1;jettySize=auto;html=1;exitX=1;exitY=0.5;exitDx=0;exitDy=0;entryX=0;entryY=0.5;entryDx=0;entryDy=0;" edge="1" parent="1" source="0f1eRFlx8pcuxKhk-a7z-101" target="0f1eRFlx8pcuxKhk-a7z-114">
          <mxGeometry relative="1" as="geometry" />
        </mxCell>
        <mxCell id="0f1eRFlx8pcuxKhk-a7z-101" value="File type: taskplanner v2" style="rounded=0;whiteSpace=wrap;html=1;" vertex="1" parent="1">
          <mxGeometry x="1170" y="780" width="150" height="60" as="geometry" />
        </mxCell>
        <mxCell id="0f1eRFlx8pcuxKhk-a7z-102" value="File type: MarkDown Export" style="rounded=0;whiteSpace=wrap;html=1;" vertex="1" parent="1">
          <mxGeometry x="1160" y="880" width="170" height="60" as="geometry" />
        </mxCell>
        <mxCell id="0f1eRFlx8pcuxKhk-a7z-107" style="edgeStyle=orthogonalEdgeStyle;rounded=0;orthogonalLoop=1;jettySize=auto;html=1;exitX=1;exitY=0.5;exitDx=0;exitDy=0;entryX=0;entryY=0.5;entryDx=0;entryDy=0;" edge="1" parent="1" source="0f1eRFlx8pcuxKhk-a7z-104" target="0f1eRFlx8pcuxKhk-a7z-82">
          <mxGeometry relative="1" as="geometry" />
        </mxCell>
        <mxCell id="0f1eRFlx8pcuxKhk-a7z-108" style="edgeStyle=orthogonalEdgeStyle;rounded=0;orthogonalLoop=1;jettySize=auto;html=1;exitX=1;exitY=0.5;exitDx=0;exitDy=0;entryX=0;entryY=0.5;entryDx=0;entryDy=0;" edge="1" parent="1" source="0f1eRFlx8pcuxKhk-a7z-104" target="0f1eRFlx8pcuxKhk-a7z-79">
          <mxGeometry relative="1" as="geometry" />
        </mxCell>
        <mxCell id="0f1eRFlx8pcuxKhk-a7z-109" style="edgeStyle=orthogonalEdgeStyle;rounded=0;orthogonalLoop=1;jettySize=auto;html=1;exitX=1;exitY=0.5;exitDx=0;exitDy=0;entryX=0;entryY=0.5;entryDx=0;entryDy=0;" edge="1" parent="1" source="0f1eRFlx8pcuxKhk-a7z-104" target="0f1eRFlx8pcuxKhk-a7z-80">
          <mxGeometry relative="1" as="geometry" />
        </mxCell>
        <mxCell id="0f1eRFlx8pcuxKhk-a7z-110" style="edgeStyle=orthogonalEdgeStyle;rounded=0;orthogonalLoop=1;jettySize=auto;html=1;exitX=1;exitY=0.5;exitDx=0;exitDy=0;entryX=0;entryY=0.5;entryDx=0;entryDy=0;" edge="1" parent="1" source="0f1eRFlx8pcuxKhk-a7z-104" target="0f1eRFlx8pcuxKhk-a7z-81">
          <mxGeometry relative="1" as="geometry" />
        </mxCell>
        <mxCell id="0f1eRFlx8pcuxKhk-a7z-104" value="AppData store" style="rounded=0;whiteSpace=wrap;html=1;" vertex="1" parent="1">
          <mxGeometry x="590" y="790" width="120" height="60" as="geometry" />
        </mxCell>
        <mxCell id="0f1eRFlx8pcuxKhk-a7z-111" value="AppData store" style="rounded=0;whiteSpace=wrap;html=1;" vertex="1" parent="1">
          <mxGeometry x="1870" y="790" width="120" height="60" as="geometry" />
        </mxCell>
        <mxCell id="0f1eRFlx8pcuxKhk-a7z-115" style="edgeStyle=orthogonalEdgeStyle;rounded=0;orthogonalLoop=1;jettySize=auto;html=1;exitX=1;exitY=0.5;exitDx=0;exitDy=0;entryX=0;entryY=0.5;entryDx=0;entryDy=0;" edge="1" parent="1" source="0f1eRFlx8pcuxKhk-a7z-114" target="0f1eRFlx8pcuxKhk-a7z-94">
          <mxGeometry relative="1" as="geometry" />
        </mxCell>
        <mxCell id="0f1eRFlx8pcuxKhk-a7z-114" value="Version determining" style="rounded=1;whiteSpace=wrap;html=1;" vertex="1" parent="1">
          <mxGeometry x="1480" y="710" width="120" height="60" as="geometry" />
        </mxCell>
        <mxCell id="0f1eRFlx8pcuxKhk-a7z-125" style="edgeStyle=orthogonalEdgeStyle;rounded=0;orthogonalLoop=1;jettySize=auto;html=1;exitX=0;exitY=0.5;exitDx=0;exitDy=0;entryX=1;entryY=0.75;entryDx=0;entryDy=0;jumpStyle=arc;" edge="1" parent="1" source="0f1eRFlx8pcuxKhk-a7z-123" target="0f1eRFlx8pcuxKhk-a7z-101">
          <mxGeometry relative="1" as="geometry">
            <Array as="points">
              <mxPoint x="1430" y="870" />
              <mxPoint x="1430" y="825" />
            </Array>
          </mxGeometry>
        </mxCell>
        <mxCell id="0f1eRFlx8pcuxKhk-a7z-126" style="edgeStyle=orthogonalEdgeStyle;rounded=0;orthogonalLoop=1;jettySize=auto;html=1;exitX=0;exitY=0.5;exitDx=0;exitDy=0;entryX=1;entryY=0.75;entryDx=0;entryDy=0;jumpStyle=arc;" edge="1" parent="1" source="0f1eRFlx8pcuxKhk-a7z-123" target="0f1eRFlx8pcuxKhk-a7z-100">
          <mxGeometry relative="1" as="geometry">
            <Array as="points">
              <mxPoint x="1430" y="870" />
              <mxPoint x="1430" y="755" />
            </Array>
          </mxGeometry>
        </mxCell>
        <mxCell id="0f1eRFlx8pcuxKhk-a7z-127" style="edgeStyle=orthogonalEdgeStyle;rounded=0;orthogonalLoop=1;jettySize=auto;html=1;entryX=1;entryY=0.75;entryDx=0;entryDy=0;jumpStyle=arc;exitX=0;exitY=0.5;exitDx=0;exitDy=0;" edge="1" parent="1" source="0f1eRFlx8pcuxKhk-a7z-123" target="0f1eRFlx8pcuxKhk-a7z-99">
          <mxGeometry relative="1" as="geometry">
            <mxPoint x="1430" y="870" as="sourcePoint" />
            <Array as="points">
              <mxPoint x="1430" y="870" />
              <mxPoint x="1430" y="685" />
            </Array>
          </mxGeometry>
        </mxCell>
        <mxCell id="0f1eRFlx8pcuxKhk-a7z-123" value="Save formatter" style="rounded=1;whiteSpace=wrap;html=1;" vertex="1" parent="1">
          <mxGeometry x="1470" y="840" width="120" height="60" as="geometry" />
        </mxCell>
        <mxCell id="0f1eRFlx8pcuxKhk-a7z-129" style="edgeStyle=orthogonalEdgeStyle;rounded=0;orthogonalLoop=1;jettySize=auto;html=1;exitX=0.5;exitY=0;exitDx=0;exitDy=0;entryX=0.5;entryY=1;entryDx=0;entryDy=0;" edge="1" parent="1" source="0f1eRFlx8pcuxKhk-a7z-128" target="0f1eRFlx8pcuxKhk-a7z-104">
          <mxGeometry relative="1" as="geometry" />
        </mxCell>
        <mxCell id="0f1eRFlx8pcuxKhk-a7z-128" value="View Settings" style="rounded=0;whiteSpace=wrap;html=1;" vertex="1" parent="1">
          <mxGeometry x="590" y="890" width="120" height="60" as="geometry" />
        </mxCell>
      </root>
    </mxGraphModel>
  </diagram>
</mxfile>
